<svg width="32" height="32" viewBox="0 0 32 32" fill="none" xmlns="http://www.w3.org/2000/svg">
<mask id="mask0_310_12030" style="mask-type:luminance" maskUnits="userSpaceOnUse" x="0" y="0" width="32" height="32">
<path d="M32 0H0V31.7734H32V0Z" fill="white"/>
</mask>
<g mask="url(#mask0_310_12030)">
<path d="M8 8.47291C10.3565 8.47291 12.2667 6.57604 12.2667 4.23645C12.2667 1.89661 10.3565 0 8 0C5.64347 0 3.73334 1.89661 3.73334 4.23645C3.73334 6.57604 5.64347 8.47291 8 8.47291Z" fill="#1766FE"/>
<path d="M24 8.47291C26.3565 8.47291 28.2667 6.57604 28.2667 4.23645C28.2667 1.89661 26.3565 0 24 0C21.6435 0 19.7333 1.89661 19.7333 4.23645C19.7333 6.57604 21.6435 8.47291 24 8.47291Z" fill="#1766FE"/>
<path d="M12.2667 10.5908C14.0341 10.5908 15.4667 12.0132 15.4667 13.7682V14.6154C15.4667 15.2003 14.9891 15.6746 14.4 15.6746H14.52C11.9795 15.6746 9.92 17.7292 9.92 20.264C9.92 21.3477 10.2965 22.3433 10.9259 23.1283L12.9867 26.6893L14.0619 24.8309C14.2125 24.8457 14.3653 24.8536 14.52 24.8536H17.5867C20.1272 24.8536 22.1867 22.7987 22.1867 20.264C22.1867 17.7292 20.1272 15.6746 17.5867 15.6746H17.6C17.0109 15.6746 16.5333 15.2003 16.5333 14.6154V13.7682C16.5333 12.0487 17.9088 10.6485 19.6267 10.5927V10.5908H28.8C30.5675 10.5908 32 12.0132 32 13.7682V15.6746H31.9984C31.9995 15.745 32 15.8157 32 15.8864C32 24.6603 24.8365 31.7731 16 31.7731C7.16347 31.7731 0 24.6603 0 15.8864C0 15.8157 0.000532454 15.745 0.00159912 15.6746H0V13.7682C0 12.0132 1.4328 10.5908 3.2 10.5908H12.2667Z" fill="#1766FE"/>
</g>
</svg>
