<svg width="64" height="64" viewBox="0 0 64 64" fill="none" xmlns="http://www.w3.org/2000/svg">
<mask id="mask0_308_7249" style="mask-type:luminance" maskUnits="userSpaceOnUse" x="0" y="0" width="64" height="64">
<path d="M64 0H0V63.5468H64V0Z" fill="white"/>
</mask>
<g mask="url(#mask0_308_7249)">
<path d="M16 16.9458C20.7131 16.9458 24.5333 13.1521 24.5333 8.47291C24.5333 3.79321 20.7131 0 16 0C11.2869 0 7.46667 3.79321 7.46667 8.47291C7.46667 13.1521 11.2869 16.9458 16 16.9458Z" fill="white"/>
<path d="M48 16.9458C52.7131 16.9458 56.5333 13.1521 56.5333 8.47291C56.5333 3.79321 52.7131 0 48 0C43.2869 0 39.4667 3.79321 39.4667 8.47291C39.4667 13.1521 43.2869 16.9458 48 16.9458Z" fill="white"/>
<path d="M24.5333 21.1826C28.0683 21.1826 30.9333 24.0274 30.9333 27.5373V29.2319C30.9333 30.4017 29.9781 31.3501 28.8 31.3501H29.04C23.9589 31.3501 19.84 35.4595 19.84 40.5289C19.84 42.6964 20.5931 44.6875 21.8517 46.2576L25.9733 53.3797L28.1237 49.6627C28.4251 49.6924 28.7307 49.7082 29.04 49.7082H35.1733C40.2544 49.7082 44.3733 45.5984 44.3733 40.5289C44.3733 35.4595 40.2544 31.3501 35.1733 31.3501H35.2C34.0219 31.3501 33.0667 30.4017 33.0667 29.2319V27.5373C33.0667 24.0984 35.8176 21.2981 39.2533 21.1863V21.1826H57.6C61.1349 21.1826 64 24.0274 64 27.5373V31.3501H63.9968C63.9989 31.491 64 31.6324 64 31.7738C64 49.3217 49.6731 63.5472 32 63.5472C14.3269 63.5472 0 49.3217 0 31.7738C0 31.6324 0.00106491 31.491 0.00319824 31.3501H0V27.5373C0 24.0274 2.8656 21.1826 6.4 21.1826H24.5333Z" fill="white"/>
</g>
</svg>
